<svg xmlns="http://www.w3.org/2000/svg" version="1.1" xmlnsXlink="http://www.w3.org/1999/xlink" xmlnssvgjs="http://svgjs.dev/svgjs" height="479" viewBox="0 0 2000 479"><g transform="matrix(1,0,0,1,-1.2121212121212466,-7.217935755748272)"><svg viewBox="0 0 396 95" data-background-color="#ffffff" preserveAspectRatio="xMidYMid meet" height="479" width="2000" xmlns="http://www.w3.org/2000/svg" xmlnsXlink="http://www.w3.org/1999/xlink"><g id="tight-bounds" transform="matrix(1,0,0,1,0.2400000000000091,1.4315321436243948)"><svg viewBox="0 0 395.52 93.71077335510792" height="93.71077335510792" width="395.52"><g><svg viewBox="0 0 495.37894264367435 117.37040811836158" height="93.71077335510792" width="395.52"><g><svg viewBox="0 0 495.37894264367435 117.37040811836158" height="117.37040811836158" width="495.37894264367435"><g id="textblocktransform"><svg viewBox="0 0 495.37894264367435 117.37040811836158" height="117.37040811836158" width="495.37894264367435" id="textblock"><g><svg viewBox="0 0 495.37894264367435 87.6147" height="87.6147" width="495.37894264367435"><g><svg><g></g><g></g></svg></g><g><svg><g><svg></svg></g><g></g></svg></g><g id="text-0"><svg viewBox="0 0 495.37894264367435 87.6147" height="87.6147" width="495.37894264367435"><g transform="matrix(1,0,0,1,0,20.635860223953262)"><svg width="395.52" viewBox="2.5 -35.75 308.0799865722656 36.099998474121094" height="46.342979552093475" data-palette-color="#4f46e5"><path d="M31.45-23.25Q31.45-19.9 29.9-17.18 28.35-14.45 25.33-12.85 22.3-11.25 18-11.25L18-11.25 13.6-11.25 13.6 0 2.5 0 2.5-35.4 18-35.4Q24.5-35.4 27.98-32.1 31.45-28.8 31.45-23.25L31.45-23.25ZM16.75-20Q20.2-20 20.2-23.25L20.2-23.25Q20.2-26.5 16.75-26.5L16.75-26.5 13.6-26.5 13.6-20 16.75-20ZM34.75-35.4L45.8-35.4 45.8-15.45Q45.8-13 46.87-11.58 47.95-10.15 50.35-10.15L50.35-10.15Q52.75-10.15 53.9-11.58 55.05-13 55.05-15.45L55.05-15.45 55.05-35.4 66.1-35.4 66.1-15.45Q66.1-10.4 64-6.83 61.9-3.25 58.25-1.45 54.6 0.35 50.1 0.35L50.1 0.35Q45.6 0.35 42.12-1.45 38.65-3.25 36.7-6.8 34.75-10.35 34.75-15.45L34.75-15.45 34.75-35.4ZM94.6-18.15Q97.8-17.4 99.57-15.08 101.35-12.75 101.35-9.7L101.35-9.7Q101.35-5.05 98.27-2.53 95.2 0 89.45 0L89.45 0 70.9 0 70.9-35.4 88.95-35.4Q94.35-35.4 97.45-33.05 100.55-30.7 100.55-26.2L100.55-26.2Q100.55-23.1 98.92-20.98 97.3-18.85 94.6-18.15L94.6-18.15ZM82-26.6L82-21.6 86.3-21.6Q87.8-21.6 88.52-22.2 89.25-22.8 89.25-24.05L89.25-24.05Q89.25-25.35 88.52-25.98 87.8-26.6 86.3-26.6L86.3-26.6 82-26.6ZM87.05-8.9Q88.55-8.9 89.27-9.47 90-10.05 90-11.35L90-11.35Q90-13.9 87.05-13.9L87.05-13.9 82-13.9 82-8.9 87.05-8.9ZM116.19-35.4L116.19-8.4 126.89-8.4 126.89 0 105.09 0 105.09-35.4 116.19-35.4ZM130.39-35.4L141.49-35.4 141.49 0 130.39 0 130.39-35.4ZM145.49-17.75Q145.49-23 147.61-27.1 149.74-31.2 153.69-33.48 157.64-35.75 162.99-35.75L162.99-35.75Q167.59-35.75 171.21-34.02 174.84-32.3 177.11-29.15 179.39-26 180.14-21.8L180.14-21.8 168.44-21.8Q167.64-23.55 166.16-24.53 164.69-25.5 162.79-25.5L162.79-25.5Q159.99-25.5 158.36-23.4 156.74-21.3 156.74-17.75L156.74-17.75Q156.74-14.2 158.36-12.1 159.99-10 162.79-10L162.79-10Q164.69-10 166.16-10.98 167.64-11.95 168.44-13.7L168.44-13.7 180.14-13.7Q179.39-9.5 177.11-6.35 174.84-3.2 171.21-1.48 167.59 0.25 162.99 0.25L162.99 0.25Q157.64 0.25 153.69-2.02 149.74-4.3 147.61-8.4 145.49-12.5 145.49-17.75L145.49-17.75ZM205.79-35.4L216.89-35.4 216.89 0 205.79 0 205.79-13.8 195.24-13.8 195.24 0 184.14 0 184.14-35.4 195.24-35.4 195.24-22.65 205.79-22.65 205.79-35.4ZM246.33 0L244.58-5.35 232.78-5.35 231.03 0 219.38 0 232.33-35.4 245.13-35.4 258.03 0 246.33 0ZM235.48-13.7L241.88-13.7 238.68-23.55 235.48-13.7ZM260.53-35.4L271.63-35.4 271.63 0 260.53 0 260.53-35.4ZM310.58-35.4L310.58 0 299.48 0 287.73-17.8 287.73 0 276.63 0 276.63-35.4 287.73-35.4 299.48-17.3 299.48-35.4 310.58-35.4Z" opacity="1" transform="matrix(1,0,0,1,0,0)" fill="#4f46e5" class="undefined-text-0" data-fill-palette-color="primary"></path></svg></g><g><svg xmlns="http://www.w3.org/2000/svg" viewBox="3.7599995136260986 2.8390090465545654 88.7282485961914 90.32197570800781" x="409.3102" y="0" height="87.6147" width="86.06874264367436" class="icon-s-0" data-fill-palette-color="accent" id="s-0"><g data-name="Your Icons" fill="#8789fe" data-fill-palette-color="accent"><circle class="cls-1" cx="48.07" cy="48.05" r="2.7" fill="#8789fe" data-fill-palette-color="accent"></circle><path class="cls-1" d="M89.07 30.26a3.42 3.42 0 0 0-1 6.69v10.1H58.85a10.62 10.62 0 0 0-0.7-2.94h12.1V30.85H59.69V9.55a3.43 3.43 0 1 0-2 0v23.3H68.25v9.26H57.12a10.91 10.91 0 0 0-4.48-3.87V15.06H44.48V9.78a3.42 3.42 0 1 0-2 0v7.25h8.16V37.53a11 11 0 0 0-2.57-0.32A10.74 10.74 0 0 0 44 38V32.48H30.07V9.55a3.43 3.43 0 1 0-2 0V34.48H42V39.1a10.84 10.84 0 0 0-4.69 7.95H8.19V23.55a3.43 3.43 0 1 0-2 0v25.5H37.28A10.66 10.66 0 0 0 38.43 53H15.21V86.45a3.43 3.43 0 1 0 2 0V55H39.74A10.9 10.9 0 0 0 44 58.07v5.16H32.82V83.34a3.43 3.43 0 1 0 2 0V65.23H46V58.67a10.39 10.39 0 0 0 2.1 0.21 11 11 0 0 0 2-0.19V70.85H59.9V86.17a3.42 3.42 0 1 0 2 0V68.85H52.07V58.11A11.1 11.1 0 0 0 55.44 56H75.19V83.34a3.43 3.43 0 1 0 2 0V54H57.13a10.86 10.86 0 0 0 1.72-4.92H90.07V37a3.42 3.42 0 0 0-1-6.69Zm-31.81-24a1.43 1.43 0 1 1 1.43 1.43A1.43 1.43 0 0 1 57.26 6.28ZM43.44 8a1.43 1.43 0 1 1 1.43-1.43A1.43 1.43 0 0 1 43.44 8ZM27.64 6.28a1.43 1.43 0 1 1 1.43 1.43A1.43 1.43 0 0 1 27.64 6.28Zm-21.88 14a1.43 1.43 0 1 1 1.43 1.43A1.43 1.43 0 0 1 5.76 20.28ZM17.64 89.72a1.43 1.43 0 1 1-1.43-1.43A1.43 1.43 0 0 1 17.64 89.72ZM35.25 86.6a1.43 1.43 0 1 1-1.43-1.43A1.43 1.43 0 0 1 35.25 86.6ZM61 88a1.43 1.43 0 1 1-1.43 1.43A1.43 1.43 0 0 1 61 88Zm-12.9-31.1a8.84 8.84 0 1 1 8.83-8.83A8.85 8.85 0 0 1 48.07 56.88ZM77.62 86.6a1.43 1.43 0 1 1-1.43-1.43A1.43 1.43 0 0 1 77.62 86.6ZM89.07 35.12a1.43 1.43 0 1 1 1.43-1.43A1.43 1.43 0 0 1 89.07 35.12Z" fill="#8789fe" data-fill-palette-color="accent"></path></g></svg></g></svg></g></svg></g><g transform="matrix(1,0,0,1,94.6173780449418,98.55516524074002)"><svg viewBox="0 0 306.14418655379075 18.815242877621568" height="18.815242877621568" width="306.14418655379075"><g transform="matrix(1,0,0,1,0,0)"><svg width="306.14418655379075" viewBox="3.75 -38.599998474121094 849.27001953125 52.19999694824219" height="18.815242877621568" data-palette-color="#8789fe"><path d="M15.1-34.75Q20.65-34.75 24.83-32.63 29-30.5 31.28-26.53 33.55-22.55 33.55-17.25L33.55-17.25Q33.55-11.95 31.28-8.05 29-4.15 24.83-2.08 20.65 0 15.1 0L15.1 0 3.75 0 3.75-34.75 15.1-34.75ZM15.1-4.65Q21.2-4.65 24.45-7.95 27.7-11.25 27.7-17.25L27.7-17.25Q27.7-23.3 24.45-26.7 21.2-30.1 15.1-30.1L15.1-30.1 9.45-30.1 9.45-4.65 15.1-4.65ZM64.45-14.45Q64.45-12.9 64.25-11.65L64.25-11.65 43.2-11.65Q43.45-8.35 45.65-6.35 47.85-4.35 51.05-4.35L51.05-4.35Q55.65-4.35 57.55-8.2L57.55-8.2 63.7-8.2Q62.45-4.4 59.17-1.98 55.9 0.45 51.05 0.45L51.05 0.45Q47.1 0.45 43.97-1.33 40.85-3.1 39.07-6.33 37.3-9.55 37.3-13.8L37.3-13.8Q37.3-18.05 39.02-21.28 40.75-24.5 43.87-26.25 47-28 51.05-28L51.05-28Q54.95-28 58-26.3 61.05-24.6 62.75-21.53 64.45-18.45 64.45-14.45L64.45-14.45ZM43.25-16.25L58.5-16.25Q58.45-19.4 56.25-21.3 54.05-23.2 50.8-23.2L50.8-23.2Q47.85-23.2 45.75-21.33 43.65-19.45 43.25-16.25L43.25-16.25ZM68.15-13.8Q68.15-18.05 69.87-21.28 71.6-24.5 74.65-26.25 77.7-28 81.65-28L81.65-28Q86.65-28 89.92-25.63 93.2-23.25 94.35-18.85L94.35-18.85 88.2-18.85Q87.45-20.9 85.8-22.05 84.15-23.2 81.65-23.2L81.65-23.2Q78.15-23.2 76.07-20.73 74-18.25 74-13.8L74-13.8Q74-9.35 76.07-6.85 78.15-4.35 81.65-4.35L81.65-4.35Q86.6-4.35 88.2-8.7L88.2-8.7 94.35-8.7Q93.15-4.5 89.85-2.02 86.55 0.45 81.65 0.45L81.65 0.45Q77.7 0.45 74.65-1.33 71.6-3.1 69.87-6.33 68.15-9.55 68.15-13.8L68.15-13.8ZM125.29-14.45Q125.29-12.9 125.09-11.65L125.09-11.65 104.04-11.65Q104.29-8.35 106.49-6.35 108.69-4.35 111.89-4.35L111.89-4.35Q116.49-4.35 118.39-8.2L118.39-8.2 124.54-8.2Q123.29-4.4 120.02-1.98 116.74 0.45 111.89 0.45L111.89 0.45Q107.94 0.45 104.82-1.33 101.69-3.1 99.92-6.33 98.14-9.55 98.14-13.8L98.14-13.8Q98.14-18.05 99.87-21.28 101.59-24.5 104.72-26.25 107.84-28 111.89-28L111.89-28Q115.79-28 118.84-26.3 121.89-24.6 123.59-21.53 125.29-18.45 125.29-14.45L125.29-14.45ZM104.09-16.25L119.34-16.25Q119.29-19.4 117.09-21.3 114.89-23.2 111.64-23.2L111.64-23.2Q108.69-23.2 106.59-21.33 104.49-19.45 104.09-16.25L104.09-16.25ZM144.79-28Q148.04-28 150.62-26.65 153.19-25.3 154.64-22.65 156.09-20 156.09-16.25L156.09-16.25 156.09 0 150.44 0 150.44-15.4Q150.44-19.1 148.59-21.08 146.74-23.05 143.54-23.05L143.54-23.05Q140.34-23.05 138.47-21.08 136.59-19.1 136.59-15.4L136.59-15.4 136.59 0 130.89 0 130.89-27.55 136.59-27.55 136.59-24.4Q137.99-26.1 140.17-27.05 142.34-28 144.79-28L144.79-28ZM176.69-22.9L169.99-22.9 169.99-7.65Q169.99-6.1 170.71-5.43 171.44-4.75 173.19-4.75L173.19-4.75 176.69-4.75 176.69 0 172.19 0Q168.34 0 166.29-1.8 164.24-3.6 164.24-7.65L164.24-7.65 164.24-22.9 160.99-22.9 160.99-27.55 164.24-27.55 164.24-34.4 169.99-34.4 169.99-27.55 176.69-27.55 176.69-22.9ZM187.64-23.55Q188.89-25.65 190.96-26.83 193.04-28 195.89-28L195.89-28 195.89-22.1 194.44-22.1Q191.09-22.1 189.36-20.4 187.64-18.7 187.64-14.5L187.64-14.5 187.64 0 181.94 0 181.94-27.55 187.64-27.55 187.64-23.55ZM199.23-13.9Q199.23-18.05 200.96-21.25 202.68-24.45 205.66-26.23 208.63-28 212.23-28L212.23-28Q215.48-28 217.91-26.73 220.33-25.45 221.78-23.55L221.78-23.55 221.78-27.55 227.53-27.55 227.53 0 221.78 0 221.78-4.1Q220.33-2.15 217.83-0.85 215.33 0.45 212.13 0.45L212.13 0.45Q208.58 0.45 205.63-1.38 202.68-3.2 200.96-6.48 199.23-9.75 199.23-13.9L199.23-13.9ZM221.78-13.8Q221.78-16.65 220.61-18.75 219.43-20.85 217.53-21.95 215.63-23.05 213.43-23.05L213.43-23.05Q211.23-23.05 209.33-21.98 207.43-20.9 206.26-18.82 205.08-16.75 205.08-13.9L205.08-13.9Q205.08-11.05 206.26-8.9 207.43-6.75 209.36-5.63 211.28-4.5 213.43-4.5L213.43-4.5Q215.63-4.5 217.53-5.6 219.43-6.7 220.61-8.83 221.78-10.95 221.78-13.8L221.78-13.8ZM235.03-37L240.73-37 240.73 0 235.03 0 235.03-37ZM251.13-31.2Q249.58-31.2 248.53-32.25 247.48-33.3 247.48-34.85L247.48-34.85Q247.48-36.4 248.53-37.45 249.58-38.5 251.13-38.5L251.13-38.5Q252.63-38.5 253.68-37.45 254.73-36.4 254.73-34.85L254.73-34.85Q254.73-33.3 253.68-32.25 252.63-31.2 251.13-31.2L251.13-31.2ZM248.23-27.55L253.93-27.55 253.93 0 248.23 0 248.23-27.55ZM278.98-22.9L266.48-4.65 278.98-4.65 278.98 0 259.88 0 259.88-4.65 272.43-22.9 259.88-22.9 259.88-27.55 278.98-27.55 278.98-22.9ZM310.22-14.45Q310.22-12.9 310.02-11.65L310.02-11.65 288.97-11.65Q289.22-8.35 291.42-6.35 293.62-4.35 296.82-4.35L296.82-4.35Q301.42-4.35 303.32-8.2L303.32-8.2 309.47-8.2Q308.22-4.4 304.95-1.98 301.67 0.45 296.82 0.45L296.82 0.45Q292.87 0.45 289.75-1.33 286.62-3.1 284.85-6.33 283.07-9.55 283.07-13.8L283.07-13.8Q283.07-18.05 284.8-21.28 286.52-24.5 289.65-26.25 292.77-28 296.82-28L296.82-28Q300.72-28 303.77-26.3 306.82-24.6 308.52-21.53 310.22-18.45 310.22-14.45L310.22-14.45ZM289.02-16.25L304.27-16.25Q304.22-19.4 302.02-21.3 299.82-23.2 296.57-23.2L296.57-23.2Q293.62-23.2 291.52-21.33 289.42-19.45 289.02-16.25L289.02-16.25ZM313.92-13.9Q313.92-18.05 315.65-21.25 317.37-24.45 320.35-26.23 323.32-28 326.97-28L326.97-28Q329.67-28 332.3-26.83 334.92-25.65 336.47-23.7L336.47-23.7 336.47-37 342.22-37 342.22 0 336.47 0 336.47-4.15Q335.07-2.15 332.6-0.85 330.12 0.45 326.92 0.45L326.92 0.45Q323.32 0.45 320.35-1.38 317.37-3.2 315.65-6.48 313.92-9.75 313.92-13.9L313.92-13.9ZM336.47-13.8Q336.47-16.65 335.3-18.75 334.12-20.85 332.22-21.95 330.32-23.05 328.12-23.05L328.12-23.05Q325.92-23.05 324.02-21.98 322.12-20.9 320.95-18.82 319.77-16.75 319.77-13.9L319.77-13.9Q319.77-11.05 320.95-8.9 322.12-6.75 324.05-5.63 325.97-4.5 328.12-4.5L328.12-4.5Q330.32-4.5 332.22-5.6 334.12-6.7 335.3-8.83 336.47-10.95 336.47-13.8L336.47-13.8ZM368.42-23.5Q369.87-25.4 372.37-26.7 374.87-28 378.02-28L378.02-28Q381.62-28 384.59-26.23 387.57-24.45 389.27-21.25 390.97-18.05 390.97-13.9L390.97-13.9Q390.97-9.75 389.27-6.48 387.57-3.2 384.59-1.38 381.62 0.45 378.02 0.45L378.02 0.45Q374.87 0.45 372.42-0.83 369.97-2.1 368.42-4L368.42-4 368.42 13.1 362.72 13.1 362.72-27.55 368.42-27.55 368.42-23.5ZM385.17-13.9Q385.17-16.75 383.99-18.82 382.82-20.9 380.89-21.98 378.97-23.05 376.77-23.05L376.77-23.05Q374.62-23.05 372.69-21.95 370.77-20.85 369.59-18.75 368.42-16.65 368.42-13.8L368.42-13.8Q368.42-10.95 369.59-8.83 370.77-6.7 372.69-5.6 374.62-4.5 376.77-4.5L376.77-4.5Q378.97-4.5 380.89-5.63 382.82-6.75 383.99-8.9 385.17-11.05 385.17-13.9L385.17-13.9ZM415.86-27.55L421.56-27.55 421.56 0 415.86 0 415.86-3.25Q414.51-1.55 412.34-0.58 410.16 0.4 407.71 0.4L407.71 0.4Q404.46 0.4 401.89-0.95 399.31-2.3 397.84-4.95 396.36-7.6 396.36-11.35L396.36-11.35 396.36-27.55 402.01-27.55 402.01-12.2Q402.01-8.5 403.86-6.53 405.71-4.55 408.91-4.55L408.91-4.55Q412.11-4.55 413.99-6.53 415.86-8.5 415.86-12.2L415.86-12.2 415.86-27.55ZM434.76-23.45Q436.21-25.45 438.74-26.73 441.26-28 444.36-28L444.36-28Q448.01-28 450.96-26.25 453.91-24.5 455.61-21.28 457.31-18.05 457.31-13.9L457.31-13.9Q457.31-9.75 455.61-6.48 453.91-3.2 450.94-1.38 447.96 0.45 444.36 0.45L444.36 0.45Q441.16 0.45 438.69-0.8 436.21-2.05 434.76-4L434.76-4 434.76 0 429.06 0 429.06-37 434.76-37 434.76-23.45ZM451.51-13.9Q451.51-16.75 450.34-18.82 449.16-20.9 447.24-21.98 445.31-23.05 443.11-23.05L443.11-23.05Q440.96-23.05 439.04-21.95 437.11-20.85 435.94-18.75 434.76-16.65 434.76-13.8L434.76-13.8Q434.76-10.95 435.94-8.83 437.11-6.7 439.04-5.6 440.96-4.5 443.11-4.5L443.11-4.5Q445.31-4.5 447.24-5.63 449.16-6.75 450.34-8.9 451.51-11.05 451.51-13.9L451.51-13.9ZM462.96-37L468.66-37 468.66 0 462.96 0 462.96-37ZM479.06-31.2Q477.51-31.2 476.46-32.25 475.41-33.3 475.41-34.85L475.41-34.85Q475.41-36.4 476.46-37.45 477.51-38.5 479.06-38.5L479.06-38.5Q480.56-38.5 481.61-37.45 482.66-36.4 482.66-34.85L482.66-34.85Q482.66-33.3 481.61-32.25 480.56-31.2 479.06-31.2L479.06-31.2ZM476.16-27.55L481.86-27.55 481.86 0 476.16 0 476.16-27.55ZM499.35 0.45Q496.1 0.45 493.53-0.73 490.95-1.9 489.45-3.93 487.95-5.95 487.85-8.45L487.85-8.45 493.75-8.45Q493.9-6.7 495.43-5.53 496.95-4.35 499.25-4.35L499.25-4.35Q501.65-4.35 502.98-5.28 504.3-6.2 504.3-7.65L504.3-7.65Q504.3-9.2 502.83-9.95 501.35-10.7 498.15-11.6L498.15-11.6Q495.05-12.45 493.1-13.25 491.15-14.05 489.73-15.7 488.3-17.35 488.3-20.05L488.3-20.05Q488.3-22.25 489.6-24.08 490.9-25.9 493.33-26.95 495.75-28 498.9-28L498.9-28Q503.6-28 506.48-25.63 509.35-23.25 509.55-19.15L509.55-19.15 503.85-19.15Q503.7-21 502.35-22.1 501-23.2 498.7-23.2L498.7-23.2Q496.45-23.2 495.25-22.35 494.05-21.5 494.05-20.1L494.05-20.1Q494.05-19 494.85-18.25 495.65-17.5 496.8-17.07 497.95-16.65 500.2-16L500.2-16Q503.2-15.2 505.13-14.38 507.05-13.55 508.45-11.95 509.85-10.35 509.9-7.7L509.9-7.7Q509.9-5.35 508.6-3.5 507.3-1.65 504.93-0.6 502.55 0.45 499.35 0.45L499.35 0.45ZM530.3-28Q533.45-28 535.92-26.65 538.4-25.3 539.82-22.65 541.25-20 541.25-16.25L541.25-16.25 541.25 0 535.6 0 535.6-15.4Q535.6-19.1 533.75-21.08 531.9-23.05 528.7-23.05L528.7-23.05Q525.5-23.05 523.63-21.08 521.75-19.1 521.75-15.4L521.75-15.4 521.75 0 516.05 0 516.05-37 521.75-37 521.75-24.35Q523.2-26.1 525.42-27.05 527.65-28 530.3-28L530.3-28ZM551.4-31.2Q549.85-31.2 548.8-32.25 547.75-33.3 547.75-34.85L547.75-34.85Q547.75-36.4 548.8-37.45 549.85-38.5 551.4-38.5L551.4-38.5Q552.9-38.5 553.95-37.45 555-36.4 555-34.85L555-34.85Q555-33.3 553.95-32.25 552.9-31.2 551.4-31.2L551.4-31.2ZM548.5-27.55L554.2-27.55 554.2 0 548.5 0 548.5-27.55ZM575.59-28Q578.84-28 581.42-26.65 583.99-25.3 585.44-22.65 586.89-20 586.89-16.25L586.89-16.25 586.89 0 581.24 0 581.24-15.4Q581.24-19.1 579.39-21.08 577.54-23.05 574.34-23.05L574.34-23.05Q571.14-23.05 569.27-21.08 567.39-19.1 567.39-15.4L567.39-15.4 567.39 0 561.69 0 561.69-27.55 567.39-27.55 567.39-24.4Q568.79-26.1 570.97-27.05 573.14-28 575.59-28L575.59-28ZM605.24-28Q608.44-28 610.92-26.73 613.39-25.45 614.79-23.55L614.79-23.55 614.79-27.55 620.54-27.55 620.54 0.45Q620.54 4.25 618.94 7.23 617.34 10.2 614.32 11.9 611.29 13.6 607.09 13.6L607.09 13.6Q601.49 13.6 597.79 10.98 594.09 8.35 593.59 3.85L593.59 3.85 599.24 3.85Q599.89 6 602.02 7.33 604.14 8.65 607.09 8.65L607.09 8.65Q610.54 8.65 612.67 6.55 614.79 4.45 614.79 0.45L614.79 0.45 614.79-4.15Q613.34-2.2 610.87-0.88 608.39 0.45 605.24 0.45L605.24 0.45Q601.64 0.45 598.67-1.38 595.69-3.2 593.97-6.48 592.24-9.75 592.24-13.9L592.24-13.9Q592.24-18.05 593.97-21.25 595.69-24.45 598.67-26.23 601.64-28 605.24-28L605.24-28ZM614.79-13.8Q614.79-16.65 613.62-18.75 612.44-20.85 610.54-21.95 608.64-23.05 606.44-23.05L606.44-23.05Q604.24-23.05 602.34-21.98 600.44-20.9 599.27-18.82 598.09-16.75 598.09-13.9L598.09-13.9Q598.09-11.05 599.27-8.9 600.44-6.75 602.37-5.63 604.29-4.5 606.44-4.5L606.44-4.5Q608.64-4.5 610.54-5.6 612.44-6.7 613.62-8.83 614.79-10.95 614.79-13.8L614.79-13.8ZM646.74-23.5Q648.19-25.4 650.69-26.7 653.19-28 656.34-28L656.34-28Q659.94-28 662.91-26.23 665.89-24.45 667.59-21.25 669.29-18.05 669.29-13.9L669.29-13.9Q669.29-9.75 667.59-6.48 665.89-3.2 662.91-1.38 659.94 0.45 656.34 0.45L656.34 0.45Q653.19 0.45 650.74-0.83 648.29-2.1 646.74-4L646.74-4 646.74 13.1 641.04 13.1 641.04-27.55 646.74-27.55 646.74-23.5ZM663.49-13.9Q663.49-16.75 662.31-18.82 661.14-20.9 659.21-21.98 657.29-23.05 655.09-23.05L655.09-23.05Q652.94-23.05 651.01-21.95 649.09-20.85 647.91-18.75 646.74-16.65 646.74-13.8L646.74-13.8Q646.74-10.95 647.91-8.83 649.09-6.7 651.01-5.6 652.94-4.5 655.09-4.5L655.09-4.5Q657.29-4.5 659.21-5.63 661.14-6.75 662.31-8.9 663.49-11.05 663.49-13.9L663.49-13.9ZM674.93-37L680.63-37 680.63 0 674.93 0 674.93-37ZM686.23-13.9Q686.23-18.05 687.96-21.25 689.68-24.45 692.66-26.23 695.63-28 699.23-28L699.23-28Q702.48-28 704.91-26.73 707.33-25.45 708.78-23.55L708.78-23.55 708.78-27.55 714.53-27.55 714.53 0 708.78 0 708.78-4.1Q707.33-2.15 704.83-0.85 702.33 0.45 699.13 0.45L699.13 0.45Q695.58 0.45 692.63-1.38 689.68-3.2 687.96-6.48 686.23-9.75 686.23-13.9L686.23-13.9ZM708.78-13.8Q708.78-16.65 707.61-18.75 706.43-20.85 704.53-21.95 702.63-23.05 700.43-23.05L700.43-23.05Q698.23-23.05 696.33-21.98 694.43-20.9 693.26-18.82 692.08-16.75 692.08-13.9L692.08-13.9Q692.08-11.05 693.26-8.9 694.43-6.75 696.36-5.63 698.28-4.5 700.43-4.5L700.43-4.5Q702.63-4.5 704.53-5.6 706.43-6.7 707.61-8.83 708.78-10.95 708.78-13.8L708.78-13.8ZM735.38-22.9L728.68-22.9 728.68-7.65Q728.68-6.1 729.4-5.43 730.13-4.75 731.88-4.75L731.88-4.75 735.38-4.75 735.38 0 730.88 0Q727.03 0 724.98-1.8 722.93-3.6 722.93-7.65L722.93-7.65 722.93-22.9 719.68-22.9 719.68-27.55 722.93-27.55 722.93-34.4 728.68-34.4 728.68-27.55 735.38-27.55 735.38-22.9ZM752.18-27.55L752.18-22.9 747.08-22.9 747.08 0 741.33 0 741.33-22.9 738.08-22.9 738.08-27.55 741.33-27.55 741.33-29.5Q741.33-34.25 743.85-36.43 746.38-38.6 751.78-38.6L751.78-38.6 751.78-33.85Q749.18-33.85 748.13-32.88 747.08-31.9 747.08-29.5L747.08-29.5 747.08-27.55 752.18-27.55ZM769.17 0.45Q765.27 0.45 762.12-1.33 758.97-3.1 757.17-6.33 755.37-9.55 755.37-13.8L755.37-13.8Q755.37-18 757.22-21.25 759.07-24.5 762.27-26.25 765.47-28 769.42-28L769.42-28Q773.37-28 776.57-26.25 779.77-24.5 781.62-21.25 783.47-18 783.47-13.8L783.47-13.8Q783.47-9.6 781.57-6.35 779.67-3.1 776.4-1.33 773.12 0.45 769.17 0.45L769.17 0.45ZM769.17-4.5Q771.37-4.5 773.3-5.55 775.22-6.6 776.42-8.7 777.62-10.8 777.62-13.8L777.62-13.8Q777.62-16.8 776.47-18.88 775.32-20.95 773.42-22 771.52-23.05 769.32-23.05L769.32-23.05Q767.12-23.05 765.25-22 763.37-20.95 762.27-18.88 761.17-16.8 761.17-13.8L761.17-13.8Q761.17-9.35 763.45-6.93 765.72-4.5 769.17-4.5L769.17-4.5ZM794.82-23.55Q796.07-25.65 798.15-26.83 800.22-28 803.07-28L803.07-28 803.07-22.1 801.62-22.1Q798.27-22.1 796.55-20.4 794.82-18.7 794.82-14.5L794.82-14.5 794.82 0 789.12 0 789.12-27.55 794.82-27.55 794.82-23.55ZM841.67-28Q844.92-28 847.49-26.65 850.07-25.3 851.54-22.65 853.02-20 853.02-16.25L853.02-16.25 853.02 0 847.37 0 847.37-15.4Q847.37-19.1 845.52-21.08 843.67-23.05 840.47-23.05L840.47-23.05Q837.27-23.05 835.39-21.08 833.52-19.1 833.52-15.4L833.52-15.4 833.52 0 827.87 0 827.87-15.4Q827.87-19.1 826.02-21.08 824.17-23.05 820.97-23.05L820.97-23.05Q817.77-23.05 815.89-21.08 814.02-19.1 814.02-15.4L814.02-15.4 814.02 0 808.32 0 808.32-27.55 814.02-27.55 814.02-24.4Q815.42-26.1 817.57-27.05 819.72-28 822.17-28L822.17-28Q825.47-28 828.07-26.6 830.67-25.2 832.07-22.55L832.07-22.55Q833.32-25.05 835.97-26.53 838.62-28 841.67-28L841.67-28Z" opacity="1" transform="matrix(1,0,0,1,0,0)" fill="#8789fe" class="undefined-text-1" data-fill-palette-color="secondary" id="text-1"></path></svg></g></svg></g></svg></g></svg></g></svg></g><defs></defs></svg><rect width="395.52" height="93.71077335510792" fill="none" stroke="none" visibility="hidden"></rect></g></svg></g></svg>