<svg xmlns="http://www.w3.org/2000/svg" version="1.1" xmlns:xlink="http://www.w3.org/1999/xlink" xmlns:svgjs="http://svgjs.dev/svgjs" width="128" height="128" viewBox="0 0 128 128"><g transform="matrix(0.44782608695652176,0,0,0.44782608695652176,35.33913456194782,12.5)"><svg viewBox="0 0 125 225" data-background-color="#90adbb" preserveAspectRatio="xMidYMid meet" height="230" width="128" xmlns="http://www.w3.org/2000/svg" xmlns:xlink="http://www.w3.org/1999/xlink"><g id="tight-bounds" transform="matrix(1,0,0,1,0.000009000000005698894,0)"><svg viewBox="0 0 125 225" height="225" width="125"><g><svg></svg></g><g><svg viewBox="0 0 125 225" height="225" width="125"><g><path transform="translate(-11.55213,38.52192) scale(1.48104,1.48104)" d="M50 13.6c19.1 0 34.8 14.8 36.3 33.5h5.9c-0.3-4.7-1.4-9.2-3.2-13.5-2.1-5-5.2-9.6-9.1-13.4-3.9-3.9-8.4-6.9-13.4-9.1-5.3-2.2-10.8-3.4-16.5-3.4-5.7 0-11.2 1.1-16.5 3.3-5 2.1-9.6 5.2-13.4 9.1-3.9 3.9-6.9 8.4-9.1 13.4-1.8 4.3-2.9 8.9-3.2 13.5h5.9c1.5-18.6 17.2-33.4 36.3-33.4zM50 86.4c-19.1 0-34.8-14.8-36.3-33.5h-5.9c0.3 4.7 1.4 9.2 3.2 13.5 2.1 5 5.2 9.6 9.1 13.4 3.9 3.9 8.4 6.9 13.4 9.1 5.2 2.2 10.7 3.3 16.5 3.3 5.8 0 11.2-1.1 16.5-3.3 5-2.1 9.6-5.2 13.4-9.1 3.9-3.9 6.9-8.4 9.1-13.4 1.8-4.3 2.9-8.9 3.2-13.5h-5.9c-1.5 18.7-17.2 33.5-36.3 33.5z" fill="#000000" fill-rule="nonzero" stroke="none" stroke-width="1" stroke-linecap="butt" stroke-linejoin="miter" stroke-miterlimit="10" stroke-dasharray="" stroke-dashoffset="0" font-family="none" font-weight="none" font-size="none" text-anchor="none" style="mix-blend-mode: normal" data-fill-palette-color="tertiary"></path></g><g transform="matrix(1,0,0,1,46.9843375,98.9237953125)"><svg viewBox="0 0 31.031324999999995 27.152409374999998" height="27.152409374999998" width="31.031324999999995"><g><svg viewBox="0 0 31.031324999999995 27.152409374999998" height="27.152409374999998" width="31.031324999999995"><g><svg viewBox="0 0 31.031324999999995 27.152409374999998" height="27.152409374999998" width="31.031324999999995"><g><svg viewBox="0 0 31.031324999999995 27.152409374999998" height="27.152409374999998" width="31.031324999999995"><g><svg viewBox="0 0 31.031324999999995 27.152409374999998" height="27.152409374999998" width="31.031324999999995"><g><svg viewBox="0 0 31.031324999999995 27.152409374999998" height="27.152409374999998" width="31.031324999999995"><g><svg xmlns="http://www.w3.org/2000/svg" viewBox="8 11 48 42" x="0" y="0" height="27.152409374999998" width="31.031324999999995" class="icon-icon-0" data-fill-palette-color="accent" id="icon-0"><g data-name="11-publishing" fill="#f6f6f6" data-fill-palette-color="accent"><path d="M56 20a5 5 0 0 0-10 0V46a1.37 1.37 0 0 0 0.07 0.34s0 0 0 0.08a0.39 0.39 0 0 0 0.06 0.11l4 6a1 1 0 0 0 1.66 0l4-6a0.39 0.39 0 0 0 0.06-0.11s0 0 0-0.08A1.37 1.37 0 0 0 56 46V20Zm-8 0a3 3 0 0 1 6 0V45H48Zm3 30.2L48.87 47h4.26ZM36.35 11H13.65A5.65 5.65 0 0 0 8 16.65v30.7A5.65 5.65 0 0 0 13.65 53h22.7A5.65 5.65 0 0 0 42 47.35V16.65A5.65 5.65 0 0 0 36.35 11ZM40 47.35A3.66 3.66 0 0 1 36.35 51H13.65A3.66 3.66 0 0 1 10 47.35V16.65A3.66 3.66 0 0 1 13.65 13h22.7A3.66 3.66 0 0 1 40 16.65ZM35 21a1 1 0 0 1-1 1H16a1 1 0 0 1 0-2H34A1 1 0 0 1 35 21Zm0 7a1 1 0 0 1-1 1H16a1 1 0 0 1 0-2H34A1 1 0 0 1 35 28Zm0 7a1 1 0 0 1-1 1H16a1 1 0 0 1 0-2H34A1 1 0 0 1 35 35Zm-9 7a1 1 0 0 1-1 1H16a1 1 0 0 1 0-2h9A1 1 0 0 1 26 42Z" fill="#000000" data-fill-palette-color="accent"></path></g></svg></g></svg></g></svg></g></svg></g></svg></g><g></g></svg></g></svg></g></svg></g><defs></defs></svg><rect width="125" height="225" fill="none" stroke="none" visibility="hidden"></rect></g></svg></g></svg>