<svg xmlns="http://www.w3.org/2000/svg" version="1.1" xmlns:xlink="http://www.w3.org/1999/xlink" xmlns:svgjs="http://svgjs.dev/svgjs" width="128" height="128" viewBox="0 0 128 128"><g transform="matrix(0.8046875,0,0,0.8046875,12.657216340203448,12.360446011513154)"><svg viewBox="0 0 94 95" data-background-color="#ffffff" preserveAspectRatio="xMidYMid meet" height="129" width="128" xmlns="http://www.w3.org/2000/svg" xmlns:xlink="http://www.w3.org/1999/xlink"><g id="tight-bounds" transform="matrix(1,0,0,1,-0.14347899008858178,-0.24049999999999727)"><svg viewBox="0 0 93.79685988188552 95.48100000000001" height="95.48100000000001" width="93.79685988188552"><g><svg viewBox="0 0 93.79685988188552 95.48100000000001" height="95.48100000000001" width="93.79685988188552"><g><svg viewBox="0 0 93.79685988188552 95.48100000000001" height="95.48100000000001" width="93.79685988188552"><g><svg viewBox="0 0 93.79685988188552 95.48100000000001" height="95.48100000000001" width="93.79685988188552"><g><svg viewBox="0 0 93.79685988188552 95.48100000000001" height="95.48100000000001" width="93.79685988188552"><g><svg viewBox="0 0 93.79685988188552 95.48100000000001" height="95.48100000000001" width="93.79685988188552"><g><svg xmlns="http://www.w3.org/2000/svg" viewBox="3.7597068978216464 2.8390092959595274 88.72883855833138 90.32198140808096" x="0" y="0" height="95.48100000000001" width="93.79685988188552" class="icon-icon-0" data-fill-palette-color="accent" id="icon-0"><g data-name="Your Icons" fill="#8789fe" data-fill-palette-color="accent"><circle class="cls-1" cx="48.07" cy="48.05" r="2.7" fill="#8789fe" data-fill-palette-color="accent"></circle><path class="cls-1" d="M89.07 30.26a3.42 3.42 0 0 0-1 6.69v10.1H58.85a10.62 10.62 0 0 0-0.7-2.94h12.1V30.85H59.69V9.55a3.43 3.43 0 1 0-2 0v23.3H68.25v9.26H57.12a10.91 10.91 0 0 0-4.48-3.87V15.06H44.48V9.78a3.42 3.42 0 1 0-2 0v7.25h8.16V37.53a11 11 0 0 0-2.57-0.32A10.74 10.74 0 0 0 44 38V32.48H30.07V9.55a3.43 3.43 0 1 0-2 0V34.48H42V39.1a10.84 10.84 0 0 0-4.69 7.95H8.19V23.55a3.43 3.43 0 1 0-2 0v25.5H37.28A10.66 10.66 0 0 0 38.43 53H15.21V86.45a3.43 3.43 0 1 0 2 0V55H39.74A10.9 10.9 0 0 0 44 58.07v5.16H32.82V83.34a3.43 3.43 0 1 0 2 0V65.23H46V58.67a10.39 10.39 0 0 0 2.1 0.21 11 11 0 0 0 2-0.19V70.85H59.9V86.17a3.42 3.42 0 1 0 2 0V68.85H52.07V58.11A11.1 11.1 0 0 0 55.44 56H75.19V83.34a3.43 3.43 0 1 0 2 0V54H57.13a10.86 10.86 0 0 0 1.72-4.92H90.07V37a3.42 3.42 0 0 0-1-6.69Zm-31.81-24a1.43 1.43 0 1 1 1.43 1.43A1.43 1.43 0 0 1 57.26 6.28ZM43.44 8a1.43 1.43 0 1 1 1.43-1.43A1.43 1.43 0 0 1 43.44 8ZM27.64 6.28a1.43 1.43 0 1 1 1.43 1.43A1.43 1.43 0 0 1 27.64 6.28Zm-21.88 14a1.43 1.43 0 1 1 1.43 1.43A1.43 1.43 0 0 1 5.76 20.28ZM17.64 89.72a1.43 1.43 0 1 1-1.43-1.43A1.43 1.43 0 0 1 17.64 89.72ZM35.25 86.6a1.43 1.43 0 1 1-1.43-1.43A1.43 1.43 0 0 1 35.25 86.6ZM61 88a1.43 1.43 0 1 1-1.43 1.43A1.43 1.43 0 0 1 61 88Zm-12.9-31.1a8.84 8.84 0 1 1 8.83-8.83A8.85 8.85 0 0 1 48.07 56.88ZM77.62 86.6a1.43 1.43 0 1 1-1.43-1.43A1.43 1.43 0 0 1 77.62 86.6ZM89.07 35.12a1.43 1.43 0 1 1 1.43-1.43A1.43 1.43 0 0 1 89.07 35.12Z" fill="#8789fe" data-fill-palette-color="accent"></path></g></svg></g></svg></g></svg></g></svg></g></svg></g></svg></g><defs></defs></svg><rect width="93.79685988188552" height="95.48100000000001" fill="none" stroke="none" visibility="hidden"></rect></g></svg></g></svg>